# xmcd CD database file
#
# Track frame offsets:
#	150
#	20050
#	41689
#	58714
#	81416
#	101732
#	124325
#	144091
#	166785
#	185350
#	204445
#	219582
#	240689
#	255785
#	277718
#	296801
#	316985
#
# Disc length: 4425 seconds
#
# Revision: 1
# Processed by: cddbd v1.5.2PL0 Copyright (c) Steve Scherf et al.
# Submitted via: CDex 1.51
#
DISCID=f1114711
DTITLE=¤ÑÅ£¦a²y§ø - AMAZING VOICE - 7
DYEAR=2000
DGENRE=New Age
TTITLE0=MON AMOUR
TTITLE1=AMADO MIO
TTITLE2=TALKIN' TALK
TTITLE3=DIANA ROBBIS-CRY ME A RIVER
TTITLE4=MAY IT BE
TTITLE5=TONIGHT AND THE REST OF MY LIFE
TTITLE6=CARRICKFERGUS
TTITLE7=SUMMER SNOW
TTITLE8=MELODRAMMA
TTITLE9=ALL THE LIES THAT YOU TOLD ME
TTITLE10=BIG BIG WORLD
TTITLE11=THE LOOK OF LOVE-DIANA ROBBIS
TTITLE12=LE TEMPS DES CATHEDRALS
TTITLE13=THE WAY WE WERE
TTITLE14=HERE WITH ME
TTITLE15=LUNA
TTITLE16=ESPIRITU
EXTD=YEAR: 2000
EXTT0=
EXTT1=
EXTT2=
EXTT3=
EXTT4=
EXTT5=
EXTT6=
EXTT7=
EXTT8=
EXTT9=
EXTT10=
EXTT11=
EXTT12=
EXTT13=
EXTT14=
EXTT15=
EXTT16=
PLAYORDER=
